# xmcd
#
# Track frame offsets:
#	150
#	14105
#	26294
#	40928
#	56731
#	69742
#	96581
#	116234
#	133258
#	148773
#	162416
#	176676
#	192963
#	213759
#	227023
#
# Disc length: 3223 seconds
#
# Revision: 1
# Processed by: cddbd v1.5.2PL0 Copyright (c) Steve Scherf et al.
# Submitted via: audiograbber 1.83.01
#
DISCID=e50c950f
DTITLE=Various Artist - Country Radio November 2013
DYEAR=2013
DGENRE=Country
TTITLE0=Love is War American Young
TTITLE1=Everbody got somebody but me Hunter Hayes ft Jason Mraz
TTITLE2=Slow me down Sara Evans
TTITLE3=Radio Up Steve Holy
TTITLE4=Cut me some slack Chris Janson
TTITLE5=When i see this bar live mix Kenny Chesney w/ Eric Church
TTITLE6=It aint the whiskey radio edit Gary Allan
TTITLE7=Get your redneck on radio edit Krystal Keith
TTITLE8=goodnight Kiss Randy Houser
TTITLE9=Hey bully Morgan Frazier
TTITLE10=We were us Keith Urban ft Miranda Lambert
TTITLE11=You give me that Brandon Hamilton
TTITLE12=I think I'll just stay here and drink Hank Willaims Jr ft Merle Haggar
TTITLE12=d
TTITLE13=Beat of the music Brett Eldredge
TTITLE14=Sober Little big town
EXTD=
EXTT0=
EXTT1=
EXTT2=
EXTT3=
EXTT4=
EXTT5=
EXTT6=
EXTT7=
EXTT8=
EXTT9=
EXTT10=
EXTT11=
EXTT12=
EXTT13=
EXTT14=
PLAYORDER=
